<svg xmlns="http://www.w3.org/2000/svg" xmlns:xlink="http://www.w3.org/1999/xlink" version="1.1" id="Layer_1" x="0px" y="0px" viewBox="0 2 98 98" style="enable-background:new 0 2 98 98;" xml:space="preserve">
<style type="text/css"> 
.st0{fill:url(#SVGID_1_);} 
.st1{fill:url(#SVGID_2_);} 
.st2{fill:url(#SVGID_3_);} 
.st3{fill:url(#SVGID_4_);} 
</style>
<g>
<linearGradient id="SVGID_1_" gradientUnits="userSpaceOnUse" x1="49" y1="5.5" x2="49" y2="95.7999">
<stop offset="0" style="stop-color:#00EFD1"></stop>
<stop offset="1" style="stop-color:#00ACEA"></stop>
</linearGradient>
<path class="st0" d="M84.1,46h-2V36c0-1.7-1.3-3-3-3H67c-1.7,0-3,1.3-3,3v10h-6V29.8c0-1.7-1.3-3-3-3H42.8c-1.7,0-3,1.3-3,3V46h-6 V36c0-1.7-1.3-3-3-3H18.7c-1.7,0-3,1.3-3,3v10h-1.8c-3.4,0-7,2.8-7,8v5c0,3.3,1.4,6.3,3.7,8.3V90c0,3.5,2.7,6.2,6.2,6.2H81 c3.5,0,6.2-2.7,6.2-6.2V67.5c2.4-2.1,3.9-5.1,3.9-8.5v-6C91.1,49.1,88,46,84.1,46z M70,39h6.1v7H70V39z M45.8,32.8H52V46h-6.2V32.8 z M21.7,39h6.1v7h-6.1V39z M81.2,90c0,0.2-0.1,0.2-0.2,0.2H16.8c-0.1,0-0.2-0.1-0.2-0.2v-8.9h64.6V90z M81.2,75.1H16.6V70 c0.2,0,0.4,0.1,0.6,0.1s0.5,0,0.7,0c2.7,0,5.4-1,7.4-2.9c0.2-0.1,0.3-0.3,0.4-0.4c2,2,4.7,3.3,7.8,3.3s5.8-1.3,7.8-3.3 c2,2.1,4.7,3.3,7.8,3.3c3.1,0,5.8-1.3,7.8-3.3c2,2.1,4.7,3.3,7.8,3.3c3.1,0,5.8-1.3,7.8-3.3c0.1,0.1,0.3,0.3,0.4,0.4 c2.2,2,5.1,3.1,8.1,2.9c0.1,0,0.1,0,0.2,0V75.1z M85.1,59c0,2.6-2,4.9-4.5,5.1c-1.3,0.1-2.6-0.4-3.6-1.3c-1-0.9-1.5-2.2-1.5-3.5 c0-1.7-1.3-3-3-3s-3,1.3-3,3c0,2.6-2.2,4.8-4.8,4.8c-2.6,0-4.8-2.2-4.8-4.8c0-1.7-1.3-3-3-3c-1.7,0-3,1.3-3,3 c0,2.6-2.2,4.8-4.8,4.8c-2.6,0-4.8-2.2-4.8-4.8c0-1.7-1.3-3-3-3s-3,1.3-3,3c0,2.6-2.2,4.8-4.8,4.8s-4.8-2.2-4.8-4.8 c0-1.7-1.3-3-3-3s-3,1.3-3,3c0,1.4-0.5,2.6-1.5,3.5c-1,0.9-2.2,1.4-3.5,1.3c-2.8-0.3-4.8-2.4-4.8-5.2v-5c0-1.2,0.4-2,1-2h70.2 c0.5,0,1,0.5,1,1.1V59z"></path>
<linearGradient id="SVGID_2_" gradientUnits="userSpaceOnUse" x1="48.9" y1="5.5" x2="48.9" y2="95.7999">
<stop offset="0" style="stop-color:#00EFD1"></stop>
<stop offset="1" style="stop-color:#00ACEA"></stop>
</linearGradient>
<path class="st1" d="M48.9,26.8c2.5,0,4.8-1,6.4-2.7c3.6-3.6,3.6-9.3,0-13L51,6.6c-1.1-1.2-3.2-1.2-4.3,0L42.5,11 c-3.6,3.6-3.6,9.3,0,13C44.1,25.8,46.5,26.8,48.9,26.8z M46.7,15.2l2.2-2.2l2.1,2.2c1.3,1.3,1.3,3.4,0,4.6c-1.1,1.1-3.2,1.1-4.3,0 C45.5,18.5,45.5,16.5,46.7,15.2z"></path>
<linearGradient id="SVGID_3_" gradientUnits="userSpaceOnUse" x1="24.8" y1="5.5" x2="24.8" y2="95.7999">
<stop offset="0" style="stop-color:#00EFD1"></stop>
<stop offset="1" style="stop-color:#00ACEA"></stop>
</linearGradient>
<path class="st2" d="M24.8,32.8c2.3,0,4.6-0.9,6.4-2.7c3.6-3.6,3.6-9.3,0-13l-4.3-4.4c-1.1-1.2-3.2-1.2-4.3,0L18.4,17 c-3.6,3.6-3.6,9.3,0,13.1C20.2,32,22.5,32.8,24.8,32.8z M22.6,21.2l2.2-2.2l2.1,2.2c1.3,1.3,1.3,3.3,0,4.6c-1.2,1.2-3.1,1.2-4.3,0 C21.4,24.5,21.4,22.5,22.6,21.2z"></path>
<linearGradient id="SVGID_4_" gradientUnits="userSpaceOnUse" x1="73" y1="5.5" x2="73" y2="95.7999">
<stop offset="0" style="stop-color:#00EFD1"></stop>
<stop offset="1" style="stop-color:#00ACEA"></stop>
</linearGradient>
<path class="st3" d="M73,32.8c2.4,0,4.7-1,6.4-2.7c3.6-3.6,3.6-9.3,0-13l-4.3-4.4c-1.1-1.2-3.2-1.2-4.3,0L66.6,17 c-3.6,3.6-3.6,9.3,0,13.1C68.3,31.8,70.6,32.8,73,32.8z M70.8,21.2L73,19l2.1,2.2c1.3,1.3,1.3,3.3,0,4.6C74,27,72,27,70.8,25.8 C69.6,24.5,69.6,22.5,70.8,21.2z"></path>
</g>
</svg>